<?xml version="1.0" encoding="iso-8859-1"?>
<!-- Uploaded to: SVG Repo, www.svgrepo.com, Generator: SVG Repo Mixer Tools -->
<svg version="1.1" id="Layer_1" xmlns="http://www.w3.org/2000/svg" xmlns:xlink="http://www.w3.org/1999/xlink" 
	 viewBox="0 0 512 512" xml:space="preserve">
<polygon style="fill:#E7ECED;" points="44.866,100.289 44.866,58.062 150.433,58.062 234.887,58.062 234.887,100.289 
	271.835,100.289 271.835,142.515 250.722,142.515 29.031,142.515 7.918,142.515 7.918,100.289 "/>
<path style="fill:#AFB6BB;" d="M60.701,385.32c0,11.612,9.501,21.113,21.113,21.113h10.557v52.784
	c0,23.33,18.896,42.227,42.227,42.227H29.031V142.515h221.691v84.454H134.598c-23.33,0-42.227,18.896-42.227,42.227v52.784H81.814
	c-5.806,0-11.085,2.322-14.885,6.228c-3.906,3.8-6.228,9.079-6.228,14.885c0,11.612,9.501,21.113,21.113,21.113
	c-5.806,0-11.085,2.322-14.885,6.228C63.024,374.235,60.701,379.513,60.701,385.32z"/>
<g>
	<path style="fill:#F270A8;" d="M472.412,406.433H92.371H81.814c-11.612,0-21.113-9.501-21.113-21.113
		c0-5.806,2.322-11.085,6.228-14.885c3.8-3.906,9.079-6.228,14.885-6.228h401.155c11.612,0,21.113,9.501,21.113,21.113
		c0,5.806-2.322,11.085-6.228,14.885c-3.8,3.906-9.079,6.228-14.885,6.228H472.412z"/>
	<path style="fill:#F270A8;" d="M482.969,321.979c11.612,0,21.113,9.501,21.113,21.113c0,5.806-2.322,11.085-6.228,14.885
		c-3.8,3.906-9.079,6.228-14.885,6.228H81.814c-11.612,0-21.113-9.501-21.113-21.113c0-5.806,2.322-11.085,6.228-14.885
		c3.8-3.906,9.079-6.228,14.885-6.228h10.557h380.041H482.969z"/>
</g>
<g>
	<path style="fill:#FFD311;" d="M472.412,406.433v52.784c0,23.33-18.896,42.227-42.227,42.227H134.598
		c-23.33,0-42.227-18.897-42.227-42.227v-52.784H472.412z"/>
	<path style="fill:#FFD311;" d="M472.412,321.979H92.371v-52.784c0-23.33,18.896-42.227,42.227-42.227h116.124h179.464
		c23.33,0,42.227,18.896,42.227,42.227V321.979z"/>
</g>
<g>
	<path style="fill:#EE4D98;" d="M267.194,364.206H81.814c-5.806,0-11.085,2.322-14.885,6.228c-3.907,3.8-6.228,9.079-6.228,14.885
		c0,11.612,9.501,21.113,21.113,21.113h10.557h215.516C293.342,393.344,279.747,379.228,267.194,364.206z"/>
	<path style="fill:#EE4D98;" d="M236.312,321.979H92.371H81.814c-5.806,0-11.085,2.322-14.885,6.228
		c-3.907,3.8-6.228,9.079-6.228,14.885c0,11.612,9.501,21.113,21.113,21.113h185.38
		C256.021,350.836,245.739,336.712,236.312,321.979z"/>
</g>
<g>
	<path style="fill:#FBC319;" d="M307.887,406.433H92.371v52.784c0,23.33,18.896,42.227,42.227,42.227h295.588
		c9.986,0,19.035-3.605,26.262-9.394C400.797,474.075,350.337,444.635,307.887,406.433z"/>
	<path style="fill:#FBC319;" d="M191.453,226.969h-56.855c-23.33,0-42.227,18.896-42.227,42.227v52.784h143.941
		C217.536,292.635,202.36,260.777,191.453,226.969z"/>
</g>
<rect x="7.918" y="100.289" style="fill:#C4C9CB;" width="263.918" height="42.227"/>
<path d="M502.834,364.178c0.207-0.199,0.417-0.395,0.619-0.601c5.514-5.404,8.548-12.674,8.548-20.484
	c0-16.008-13.024-29.031-29.031-29.031h-2.639v-44.866c0-27.649-22.495-50.144-50.144-50.144h-58.06v15.835h58.06
	c18.919,0,34.309,15.392,34.309,34.309v7.918H340.454v15.835h124.041v21.113H100.289v-44.866c0-18.918,15.391-34.309,34.309-34.309
	h216.416v-15.835h-92.374v-68.619h21.113V92.371h-36.948V50.144H36.948v42.227H0v58.062h21.113v34.311h15.835v-34.311h205.856
	v68.619H134.598c-27.649,0-50.144,22.495-50.144,50.144v44.866h-2.639c-7.81,0-15.08,3.034-20.483,8.547
	c-5.514,5.404-8.548,12.674-8.548,20.484c0,8.328,3.53,15.842,9.166,21.142c-0.207,0.2-0.417,0.395-0.619,0.601
	c-5.514,5.404-8.548,12.674-8.548,20.484c0,16.008,13.024,29.031,29.031,29.031h2.639v44.866c0,13.263,5.185,25.332,13.624,34.309
	h-61.13V205.855H21.113v303.506h409.072c27.649,0,50.144-22.495,50.144-50.144v-44.866h2.639c7.81,0,15.08-3.034,20.483-8.547
	C508.966,400.4,512,393.129,512,385.32C512,376.991,508.47,369.477,502.834,364.178z M15.835,108.206h182.103V92.371H52.784V65.979
	h174.186v42.227h36.948v26.392H15.835V108.206z M68.619,343.093c0-3.534,1.361-6.806,3.833-9.211l0.154-0.154
	c2.404-2.471,5.674-3.832,9.21-3.832H482.97c7.277,0,13.196,5.919,13.196,13.196c0,3.534-1.361,6.806-3.833,9.211l-0.154,0.154
	c-2.404,2.471-5.674,3.832-9.21,3.832H81.814C74.538,356.289,68.619,350.37,68.619,343.093z M464.495,459.217
	c0,18.918-15.391,34.309-34.309,34.309H134.598c-18.919,0-34.309-15.392-34.309-34.309v-44.866h364.206V459.217z M492.332,394.53
	l-0.154,0.154c-2.404,2.471-5.674,3.832-9.21,3.832H92.37h-7.916h-2.639c-7.277,0-13.196-5.919-13.196-13.196
	c0-3.534,1.361-6.806,3.833-9.211l0.154-0.154c2.404-2.471,5.674-3.832,9.21-3.832H482.97c7.277,0,13.196,5.919,13.196,13.196
	C496.165,388.854,494.804,392.125,492.332,394.53z"/>
<rect x="139.876" y="277.113" width="21.113" height="15.835"/>
<g>
	<rect x="160.99" y="256" style="fill:#FFFFFF;" width="21.113" height="15.835"/>
	<rect x="372.124" y="446.021" style="fill:#FFFFFF;" width="21.113" height="15.835"/>
</g>
<rect x="319.34" y="435.464" width="21.113" height="15.835"/>
<g>
	<rect x="160.99" y="446.021" style="fill:#FFFFFF;" width="21.113" height="15.835"/>
	<polygon style="fill:#FFFFFF;" points="68.619,182.103 102.928,182.103 102.928,166.268 52.784,166.268 52.784,205.856 
		68.619,205.856 	"/>
	<rect x="52.784" y="216.412" style="fill:#FFFFFF;" width="15.835" height="21.113"/>
</g>
<rect x="211.134" y="163.629" width="15.835" height="21.113"/>
<polygon points="158.351,18.474 229.608,18.474 229.608,2.639 142.515,2.639 142.515,36.948 158.351,36.948 "/>
</svg>